<svg xmlns="http://www.w3.org/2000/svg"><symbol id="facebook-icon" viewBox="0 0 156.4 154.3"><rect width="152.3" height="150.45" x="1.9" y="1.9" fill="#958471" rx="20.4"/><path fill="#fff" d="M101.2 153.3V99.5h18.7s3.2.2 3.9-5.2c0-.3 1.5-15.2 1.5-15.2s.5-3.7-4.1-3.7h-20V57.8s.9-7.2 7.2-7.6a110.4 110.4 0 0 1 13.7 0s2.1-.7 2.4-3.9 0-15.2 0-15.2 1-2.9-5.3-2.9-25.6-1.9-33.6 7.9A32.9 32.9 0 0 0 78 56.8v18.7H62.7s-2.4-.5-2.4 3.8v17.2s0 2.8 3.4 2.8H78v54z"/></symbol><symbol id="instagram-icon" viewBox="0 0 156.4 154.3"><rect width="152.3" height="150.45" x="1.7" y="2.3" fill="#958471" rx="20.4"/><rect width="105.6" height="105.65" x="25.1" y="24.7" fill="none" stroke="#fff" stroke-miterlimit="10" stroke-width="5.29" rx="24.3"/><circle cx="77.3" cy="79.6" r="32.2" fill="none" stroke="#fff" stroke-miterlimit="10" stroke-width="5.29"/><circle cx="112.8" cy="43.5" r="6.1" fill="#fff"/></symbol><symbol id="shopping-bag" viewBox="0 0 259.2 237.6"><path fill="#958471" d="M243.4 235.8H15.8c-8.2 0-14.3-6.6-12.7-13.7L34.5 80c1.2-5.4 6.5-9.2 12.7-9.2H212c6.2 0 11.5 3.8 12.7 9.2l31.4 142.1c1.6 7.1-4.5 13.7-12.7 13.7z"/><path fill="#958471" d="M184.3 72.4a54.7 54.7 0 0 0-109.4 0l-16.3.4a71 71 0 0 1 142 0z"/><path fill="#fff" d="M91.9 168.3v-37.5c0-23.2 14.2-35.6 37.6-35.6s37.8 12.4 37.8 35.6v37.5c0 23.3-14.2 35.7-37.8 35.7s-37.6-12.4-37.6-35.7zm62 .8V130c0-16.2-8.3-24.8-24.4-24.8s-24.3 8.6-24.3 24.8v39.1c0 16.3 8.4 24.8 24.3 24.8s24.4-8.5 24.4-24.8z"/></symbol><symbol id="twitter-icon" viewBox="0 0 156.4 154.3"><rect width="152.3" height="150.45" x="1.9" y="1.8" fill="#958471" rx="20.4"/><path fill="#fff" d="M18.3 114.7s27.6 21.3 67.8 4.5 39.3-66.3 39.3-66.3 9.3-6.5 12.4-12.7c0-.1-7 3-14.1 3.8-.1.1 9.8-6.4 10.6-13.4 0 0-8.1 4.3-15.1 5.7 0 0-11.9-12.8-28.7-5.7s-13.3 28-13.3 28S46 58 26.7 33.2c0 0-11 19.1 7.5 32.6 0 .2-6.3-.5-11.1-3.1 0 0-.7 19.4 19.5 24.4a33.3 33.3 0 0 1-10.7.4s2.6 15.6 22.3 17.1c0-.2-13.2 12.5-35.9 10.1z"/></symbol></svg>