<svg xmlns="http://www.w3.org/2000/svg" width="3.2in" height="144" viewBox="0 0 230.4 108.5"><path fill="#272525" d="M55.4 41.5c-5.7 17.9-12.5 38-31.2 38-8 0-14.7-6.1-14.7-14 0-9.6 10.1-16.8 21.1-21C32.3 32.6 53.2 23 63.9 15.8c0 0 4.1-4.1 5.1-4.1s1.1.8 1.1 1.5-1.5.5-5.1 5-6.3 13-9.2 22.1c3.2.2 4.3.7 4.3 1.1s-1 1.3-1.3 1.3a10.2 10.2 0 0 0-3.4-1.2zm-5.1-.2c-4.8 0-10 1.2-16.1 3.6 0 3.7 3.1 5.3 3.1 5.9a4.6 4.6 0 0 1-2.8 2.2c-1 0-3.9-2.5-3.9-6.6-10.1 4.5-18.8 11.5-18.8 21.5a9.7 9.7 0 0 0 9.9 9.6c14.4 0 21.9-18.9 28.6-36.2zm-16 1.9a52 52 0 0 1 16.4-3.1c3.7-9.4 6.9-17.2 11.4-21.7-9.7 6.4-26.4 14.6-27.8 24.8zm39.8-22c0 2.4-5.1 6.2-6.1 6.2s-.4-.3-.4-.5 2.4-3.7 2.4-6.5a5.6 5.6 0 0 0-.6-2.4c0-.4.2-.6.7-.6s4 1.5 4 3.8zm62.1 12.9a89 89 0 0 1 15-19.2 2 2 0 0 1 1.1-.7.5.5 0 0 1 .5.5c0 .2-.1.4-.7 1-4.2 4.1-9.1 11.5-12.4 18.7 2.1.3 4 .8 4 1.6a.4.4 0 0 1-.4.4 20.5 20.5 0 0 0-4.1-1 45.9 45.9 0 0 0-4 18.2c0 3.2 1 4 1.8 4s.6.2.6.5-.4.3-.8.3-7.4-1.8-7.4-6.7 3-11 6.1-16.5h-2.7c-1.5 0-4.7.2-7.8.5-14 17-26.8 30.5-39.7 30.5-6.5 0-12.8-3.9-12.8-11.6 0-17.6 25.3-34.9 37.5-34.9 3.6 0 5.5 2.2 5.5 4.6 0 5.2-5 10.7-5.9 10.7s-2.4-.4-2.4-.8.2-.4.4-.5c1.9-.4 6.3-5.3 6.3-10.2 0-1.4-.8-2.9-3.5-2.9-10.9 0-33.3 18.9-33.3 35.6 0 5.7 2.7 8.9 8 8.9 7.7 0 20.4-15.1 32.2-28.3-7.9 2.1-16.3 6.8-21.3 13.1-.2.3-.3.6-.6.6s-2.6-1.7-2.6-2.6 1.2-2 2.6-3.1c6-5.1 14.4-7.8 23.5-9.6l.3-.3c11.3-12.3 23.9-23.2 36.7-23.2a1.5 1.5 0 0 1 1.6 1.5c0 .2 0 .3-.1.3h-1.6c-9.5 0-20.4 9.7-29.7 20.9l7.7-.3z"/><path fill="#272525" d="M161.4 58.4c.2 0 .3.1.3.4s-.5.4-.9.4c-2.9 0-6.9-2.7-7-10.2-4.8 4.7-9 7.7-11 7.7s-3.7-2-3.7-3.6c0-5 7.8-13.9 11.1-13.9s4.3 1.2 4.3 1.8-.1.6-.5.6c-3.8 0-11.1 9.7-11.1 13.3 0 .2 0 .4.2.4 2.2 0 5.9-2.9 10.7-7.7.6-10.3 10.1-27.1 16.6-27.1 1.6 0 2.7 1.7 2.7 3.5s-6.4 11-13.7 19.1a24.7 24.7 0 0 0-1.1 7.3c0 4.3 1.5 7.8 3.1 8zm9.7-34.1c-3.4 0-8.5 8.9-11.1 16.7 6.6-7.4 11.6-14.7 11.6-16.3a.5.5 0 0 0-.5-.4z"/><path fill="#272525" d="M172 53.3c-1.9 1.6-3.7 2.4-4.7 2.4s-4.7-1.6-4.7-4.7a8.7 8.7 0 0 1 .7-3.7 4.3 4.3 0 0 1-.1-.5c0-5.7 6.3-9.7 10-9.7s5.4 1.9 5.4 4.7c0 4.4-2.8 8.1-5.6 10.7 3.5-.3 7.1-2.9 9.2-5 0 0 .2-.3.4-.3a.3.3 0 0 1 .3.3 4.4 4.4 0 0 1-.7.8c-1.9 1.7-5.2 4.8-10.2 5zm-.5-14.3c.9 0 2.5 2.4 2.5 3.1s-.4.7-.8.9c-2.5 1.5-6.1 4.5-7.5 7.5a7.3 7.3 0 0 0 5.1 2.1c2.8-2.5 5.4-6.6 5.4-11 0-2.2-1.4-3.4-3.6-3.4s-6.7 3-7.8 6.2a20.3 20.3 0 0 1 3.2-3.3c1.1-1 2.5-2.1 3.5-2.1zm-6.6 13.7a1.8 1.8 0 0 0 1.7 2 5.6 5.6 0 0 0 3.3-1.4 8.2 8.2 0 0 1-4.8-2 3.4 3.4 0 0 0-.2 1.4z"/><path fill="#272525" d="M187.6 41.2c-1.6-.6-3.9-1.5-3.9-3.1s3.4-4.7 4.9-4.7 2.8 1.4 2.8 2-1.2 3.5-2.7 5.5c2.1 1 6 1.6 6 3.3s-4.8 6.4-4.8 8.7.4 1.3 1 1.3c2.8 0 9.5-6.7 9.5-6.7l.4-.3c.2 0 .2.2.2.4s-.3.4-.6.7-7 7.3-10.3 7.3-4.6-1.9-4.6-3.8c0-4 3.5-7.2 3.5-9.1a1.1 1.1 0 0 0-.7-1.2c-2 2.5-4.5 5.1-6.1 6.8l-.3.3a.3.3 0 0 1-.3-.3l.6-.8a65.6 65.6 0 0 0 5.4-6.3zm2.1-5.6a3.9 3.9 0 0 0-2.3 3.5 1.4 1.4 0 0 0 .7 1.4 9.9 9.9 0 0 0 1.9-4.7c0-.1-.1-.2-.3-.2z"/><path fill="#272525" d="M216.3 53.9a.8.8 0 0 1 .6-.2c.2 0 .3.2.3.4s-.2.4-.5.6a5.5 5.5 0 0 1-2.6 1.2c-2.4 0-4.2-2.5-4.2-4.3s2.8-6.7 2.8-7.2h-.2c-.6 0-5 2.3-8.7 5.6s-5 7.8-5.8 7.8-2.2-2.2-2.2-3.6 7.9-12.6 7.9-14.6c0-.5.3-.8.6-.8a4.3 4.3 0 0 1 3.4 3.6c0 1-1.2 2.8-2.7 5.3 2.7-2 9-6.1 11.4-6.1s2.3 2.4 2.3 3.3-5.3 5.7-5.3 8.9a.8.8 0 0 0 .9.8 3.3 3.3 0 0 0 2-.7z"/></svg>